<svg width="20" height="20" viewBox="0 0 20 20" fill="none" xmlns="http://www.w3.org/2000/svg">
<g opacity="0.6">
<path d="M16.4834 14.767C15.1165 15.0952 13.6896 15.0793 12.3304 14.7207C10.9712 14.3621 9.7222 13.672 8.69515 12.7123C7.6681 11.7525 6.89511 10.5531 6.4454 9.22128C5.99569 7.88948 5.8833 6.46695 6.11829 5.08105C6.08255 5.11557 6.04482 5.14796 6.00528 5.17805C5.72528 5.39105 5.37528 5.47005 4.67527 5.62805L4.04027 5.77205C1.58025 6.32904 0.350238 6.60704 0.0572355 7.54803C-0.234767 8.48802 0.60324 9.46901 2.28025 11.43L2.71426 11.937C3.19026 12.494 3.42926 12.773 3.53626 13.117C3.64326 13.462 3.60726 13.834 3.53526 14.577L3.46926 15.254C3.21626 17.8709 3.08926 19.1789 3.85527 19.7599C4.62127 20.3419 5.77328 19.8119 8.0753 18.7509L8.67231 18.4769C9.32631 18.1749 9.65331 18.0249 10.0003 18.0249C10.3473 18.0249 10.6743 18.1749 11.3293 18.4769L11.9243 18.7509C14.2274 19.8109 15.3794 20.3409 16.1444 19.7609C16.9114 19.1789 16.7844 17.8709 16.5314 15.254L16.4834 14.767Z" fill="#FE8A87"/>
<path opacity="0.5" d="M7.15335 3.40797L6.82535 3.99596C6.46534 4.64196 6.28534 4.96495 6.00534 5.17795C6.04534 5.14795 6.08234 5.11595 6.11834 5.08095C5.88329 6.46695 5.99568 7.8896 6.44544 9.22149C6.8952 10.5534 7.66829 11.7529 8.69546 12.7127C9.72264 13.6725 10.9718 14.3625 12.3312 14.721C13.6905 15.0795 15.1175 15.0953 16.4844 14.7669L16.4644 14.5769C16.3934 13.8339 16.3574 13.4619 16.4644 13.1169C16.5714 12.7729 16.8094 12.4939 17.2864 11.9369L17.7204 11.4299C19.3975 9.46991 20.2355 8.48892 19.9425 7.54793C19.6505 6.60694 18.4204 6.32794 15.9604 5.77194L15.3244 5.62795C14.6254 5.46995 14.2754 5.39095 13.9944 5.17795C13.7144 4.96495 13.5344 4.64196 13.1744 3.99596L12.8474 3.40797C11.5804 1.13599 10.9474 0 10.0004 0C9.05337 0 8.42036 1.13599 7.15335 3.40797Z" fill="#63A335"/>
</g>
</svg>
