<svg width="340" height="35" viewBox="0 0 340 35" fill="none" xmlns="http://www.w3.org/2000/svg">
<line x1="0.369507" y1="16.4167" x2="340" y2="16.4167" stroke="#929292"/>
<ellipse cx="16.9815" cy="17.5" rx="16.9815" ry="17.5" fill="#F6CAC9"/>
<ellipse cx="220.76" cy="17.5" rx="16.9815" ry="17.5" fill="#F6CAC9"/>
<ellipse cx="118.871" cy="17.5" rx="16.9815" ry="17.5" fill="#F6CAC9"/>
<ellipse cx="118.871" cy="17.5" rx="16.9815" ry="17.5" fill="#50574B"/>
<ellipse cx="322.649" cy="17.5" rx="16.9815" ry="17.5" fill="#F6CAC9"/>
<path d="M18.0834 21.6667H16.7074V13.6827C16.7074 13.3734 16.7074 13.1121 16.7074 12.8987C16.7181 12.6854 16.7288 12.4881 16.7394 12.3067C16.7501 12.1147 16.7608 11.9174 16.7714 11.7147C16.6008 11.8854 16.4461 12.0294 16.3074 12.1467C16.1688 12.2641 15.9928 12.4134 15.7794 12.5947L14.5634 13.5867L13.8274 12.6427L16.9154 10.2427H18.0834V21.6667Z" fill="#FDFDFD"/>
<path d="M326.903 19.0747H325.239V21.6667H323.879V19.0747H318.407V17.8747L323.783 10.1787H325.239V17.8107H326.903V19.0747ZM323.879 14.2107C323.879 13.9334 323.879 13.6827 323.879 13.4587C323.889 13.2241 323.9 13.0054 323.911 12.8027C323.921 12.6001 323.927 12.4081 323.927 12.2267C323.937 12.0347 323.948 11.8534 323.959 11.6827H323.895C323.809 11.8854 323.703 12.1041 323.575 12.3387C323.447 12.5734 323.324 12.7707 323.207 12.9307L319.783 17.8107H323.879V14.2107Z" fill="#FDFDFD"/>
<path d="M224.07 12.9147C224.07 13.4267 223.974 13.8694 223.782 14.2427C223.59 14.6161 223.312 14.9201 222.95 15.1547C222.598 15.3894 222.182 15.5547 221.702 15.6507V15.7147C222.619 15.8214 223.302 16.1094 223.75 16.5787C224.198 17.0481 224.422 17.6614 224.422 18.4187C224.422 19.0801 224.267 19.6721 223.958 20.1947C223.648 20.7067 223.168 21.1067 222.518 21.3947C221.878 21.6827 221.051 21.8267 220.038 21.8267C219.44 21.8267 218.886 21.7787 218.374 21.6827C217.862 21.5974 217.371 21.4374 216.902 21.2027V19.8907C217.382 20.1254 217.899 20.3121 218.454 20.4507C219.008 20.5787 219.542 20.6427 220.054 20.6427C221.078 20.6427 221.814 20.4454 222.262 20.0507C222.72 19.6454 222.95 19.0907 222.95 18.3867C222.95 17.9067 222.822 17.5227 222.566 17.2347C222.32 16.9361 221.958 16.7174 221.478 16.5787C220.998 16.4401 220.422 16.3707 219.75 16.3707H218.646V15.1707H219.766C220.395 15.1707 220.918 15.0801 221.334 14.8987C221.76 14.7174 222.08 14.4667 222.294 14.1467C222.518 13.8161 222.63 13.4374 222.63 13.0107C222.63 12.4561 222.443 12.0294 222.07 11.7307C221.696 11.4214 221.19 11.2667 220.55 11.2667C220.144 11.2667 219.776 11.3094 219.446 11.3947C219.115 11.4694 218.806 11.5814 218.518 11.7307C218.24 11.8694 217.958 12.0347 217.67 12.2267L216.966 11.2667C217.243 11.0534 217.558 10.8561 217.91 10.6747C218.272 10.4934 218.672 10.3494 219.11 10.2427C219.547 10.1361 220.022 10.0827 220.534 10.0827C221.728 10.0827 222.614 10.3494 223.19 10.8827C223.776 11.4161 224.07 12.0934 224.07 12.9147Z" fill="#FDFDFD"/>
<path d="M122.613 21.6667H115.061V20.4987L118.053 17.4747C118.629 16.8987 119.114 16.3867 119.509 15.9387C119.903 15.4907 120.202 15.0534 120.405 14.6267C120.607 14.1894 120.709 13.7147 120.709 13.2027C120.709 12.5734 120.522 12.0987 120.149 11.7787C119.775 11.4481 119.29 11.2827 118.693 11.2827C118.138 11.2827 117.647 11.3787 117.221 11.5707C116.805 11.7627 116.378 12.0294 115.941 12.3707L115.189 11.4267C115.487 11.1707 115.813 10.9414 116.165 10.7387C116.527 10.5361 116.917 10.3761 117.333 10.2587C117.759 10.1414 118.213 10.0827 118.693 10.0827C119.407 10.0827 120.021 10.2054 120.533 10.4507C121.045 10.6961 121.439 11.0481 121.717 11.5067C122.005 11.9547 122.149 12.4934 122.149 13.1227C122.149 13.5707 122.079 13.9974 121.941 14.4027C121.802 14.7974 121.605 15.1867 121.349 15.5707C121.093 15.9547 120.783 16.3441 120.421 16.7387C120.058 17.1334 119.658 17.5441 119.221 17.9707L116.837 20.3227V20.3867H122.613V21.6667Z" fill="#FDFDFD"/>
</svg>
