<svg width="8" height="8" viewBox="0 0 8 8" fill="none" xmlns="http://www.w3.org/2000/svg">
<path d="M7.14412 6.48099C7.23218 6.56905 7.28166 6.68848 7.28166 6.81302C7.28166 6.93756 7.23218 7.05699 7.14412 7.14505C7.05606 7.23311 6.93663 7.28258 6.81209 7.28258C6.68756 7.28258 6.56812 7.23311 6.48006 7.14505L3.99998 4.66419L1.51912 7.14427C1.43106 7.23233 1.31163 7.2818 1.18709 7.2818C1.06256 7.2818 0.943121 7.23233 0.855061 7.14427C0.767001 7.05621 0.717529 6.93678 0.717529 6.81224C0.717529 6.6877 0.767001 6.56827 0.855061 6.48021L3.33592 4.00013L0.855842 1.51927C0.767782 1.43121 0.718311 1.31177 0.718311 1.18724C0.718311 1.0627 0.767782 0.943268 0.855842 0.855208C0.943902 0.767147 1.06334 0.717676 1.18787 0.717676C1.31241 0.717676 1.43184 0.767147 1.5199 0.855208L3.99998 3.33607L6.48084 0.854817C6.5689 0.766757 6.68834 0.717285 6.81287 0.717285C6.93741 0.717285 7.05684 0.766757 7.1449 0.854817C7.23296 0.942877 7.28244 1.06231 7.28244 1.18685C7.28244 1.31138 7.23296 1.43082 7.1449 1.51888L4.66405 4.00013L7.14412 6.48099Z" fill="#505050"/>
</svg>
