<svg width="86" height="86" viewBox="0 0 86 86" fill="none" xmlns="http://www.w3.org/2000/svg">
<path d="M53.5263 24.0526H53.5684M43 78.7895H15.6316C12.2815 78.7895 9.06859 77.4587 6.6997 75.0898C4.33082 72.7209 3 69.508 3 66.1579V15.6316C3 12.2815 4.33082 9.06859 6.6997 6.6997C9.06859 4.33082 12.2815 3 15.6316 3H66.1579C69.508 3 72.7209 4.33082 75.0898 6.6997C77.4587 9.06859 78.7895 12.2815 78.7895 15.6316V43" stroke="#50574B" stroke-width="5" stroke-linecap="round" stroke-linejoin="round"/>
<path d="M3 57.7369L24.0526 36.6843C27.96 32.9243 32.7768 32.9243 36.6842 36.6843L53.5263 53.5264" stroke="#50574B" stroke-width="5" stroke-linecap="round" stroke-linejoin="round"/>
<path d="M49.3159 49.3159L53.5264 45.1053C56.3475 42.3937 59.6317 41.6359 62.7138 42.8316M57.737 70.3685H83.0001M70.3686 57.7369V83.0001" stroke="#50574B" stroke-width="5" stroke-linecap="round" stroke-linejoin="round"/>
</svg>
