<svg width="80" height="80" viewBox="0 0 80 80" fill="none" xmlns="http://www.w3.org/2000/svg">
<path d="M40 0C17.9087 0 0 17.9087 0 40C0 62.0925 17.9087 80 40 80C62.0925 80 80 62.0925 80 40C80 17.9087 62.0925 0 40 0ZM40 75.0788C20.7013 75.0788 5 59.2987 5 39.9998C5 20.7011 20.7013 4.99984 40 4.99984C59.2987 4.99984 75 20.7012 75 39.9998C75 59.2985 59.2987 75.0788 40 75.0788ZM57.5 37.5H42.5V22.5C42.5 21.12 41.38 20 40 20C38.62 20 37.5 21.12 37.5 22.5V37.5H22.5C21.12 37.5 20 38.62 20 40C20 41.38 21.12 42.5 22.5 42.5H37.5V57.5C37.5 58.88 38.62 60 40 60C41.38 60 42.5 58.88 42.5 57.5V42.5H57.5C58.88 42.5 60 41.38 60 40C60 38.62 58.88 37.5 57.5 37.5Z" fill="#F0F0F0"/>
</svg>
