<svg width="340" height="35" viewBox="0 0 340 35" fill="none" xmlns="http://www.w3.org/2000/svg">
<line x1="0.369507" y1="16.4166" x2="340" y2="16.4166" stroke="#929292"/>
<ellipse cx="16.9815" cy="17.5" rx="16.9815" ry="17.5" fill="#F6CAC9"/>
<ellipse cx="16.9815" cy="17.5" rx="16.9815" ry="17.5" fill="#50574B"/>
<ellipse cx="220.76" cy="17.5" rx="16.9815" ry="17.5" fill="#F6CAC9"/>
<ellipse cx="118.871" cy="17.5" rx="16.9815" ry="17.5" fill="#F6CAC9"/>
<ellipse cx="322.649" cy="17.5" rx="16.9815" ry="17.5" fill="#F6CAC9"/>
<path d="M17.7624 22H16.3864V14.016C16.3864 13.7067 16.3864 13.4453 16.3864 13.232C16.397 13.0187 16.4077 12.8213 16.4184 12.64C16.429 12.448 16.4397 12.2507 16.4504 12.048C16.2797 12.2187 16.125 12.3627 15.9864 12.48C15.8477 12.5973 15.6717 12.7467 15.4584 12.928L14.2424 13.92L13.5064 12.976L16.5944 10.576H17.7624V22Z" fill="#FDFDFD"/>
<path d="M326.903 19.0746H325.239V21.6666H323.879V19.0746H318.407V17.8746L323.783 10.1786H325.239V17.8106H326.903V19.0746ZM323.879 14.2106C323.879 13.9333 323.879 13.6826 323.879 13.4586C323.889 13.224 323.9 13.0053 323.911 12.8026C323.921 12.6 323.927 12.408 323.927 12.2266C323.937 12.0346 323.948 11.8533 323.959 11.6826H323.895C323.809 11.8853 323.703 12.104 323.575 12.3386C323.447 12.5733 323.324 12.7706 323.207 12.9306L319.783 17.8106H323.879V14.2106Z" fill="#FDFDFD"/>
<path d="M224.07 12.9146C224.07 13.4266 223.974 13.8693 223.782 14.2426C223.59 14.616 223.312 14.92 222.95 15.1546C222.598 15.3893 222.182 15.5546 221.702 15.6506V15.7146C222.619 15.8213 223.302 16.1093 223.75 16.5786C224.198 17.048 224.422 17.6613 224.422 18.4186C224.422 19.08 224.267 19.672 223.958 20.1946C223.648 20.7066 223.168 21.1066 222.518 21.3946C221.878 21.6826 221.051 21.8266 220.038 21.8266C219.44 21.8266 218.886 21.7786 218.374 21.6826C217.862 21.5973 217.371 21.4373 216.902 21.2026V19.8906C217.382 20.1253 217.899 20.312 218.454 20.4506C219.008 20.5786 219.542 20.6426 220.054 20.6426C221.078 20.6426 221.814 20.4453 222.262 20.0506C222.72 19.6453 222.95 19.0906 222.95 18.3866C222.95 17.9066 222.822 17.5226 222.566 17.2346C222.32 16.936 221.958 16.7173 221.478 16.5786C220.998 16.44 220.422 16.3706 219.75 16.3706H218.646V15.1706H219.766C220.395 15.1706 220.918 15.08 221.334 14.8986C221.76 14.7173 222.08 14.4666 222.294 14.1466C222.518 13.816 222.63 13.4373 222.63 13.0106C222.63 12.456 222.443 12.0293 222.07 11.7306C221.696 11.4213 221.19 11.2666 220.55 11.2666C220.144 11.2666 219.776 11.3093 219.446 11.3946C219.115 11.4693 218.806 11.5813 218.518 11.7306C218.24 11.8693 217.958 12.0346 217.67 12.2266L216.966 11.2666C217.243 11.0533 217.558 10.856 217.91 10.6746C218.272 10.4933 218.672 10.3493 219.11 10.2426C219.547 10.136 220.022 10.0826 220.534 10.0826C221.728 10.0826 222.614 10.3493 223.19 10.8826C223.776 11.416 224.07 12.0933 224.07 12.9146Z" fill="#FDFDFD"/>
<path d="M122.613 21.6666H115.061V20.4986L118.053 17.4746C118.629 16.8986 119.114 16.3866 119.509 15.9386C119.903 15.4906 120.202 15.0533 120.405 14.6266C120.607 14.1893 120.709 13.7146 120.709 13.2026C120.709 12.5733 120.522 12.0986 120.149 11.7786C119.775 11.448 119.29 11.2826 118.693 11.2826C118.138 11.2826 117.647 11.3786 117.221 11.5706C116.805 11.7626 116.378 12.0293 115.941 12.3706L115.189 11.4266C115.487 11.1706 115.813 10.9413 116.165 10.7386C116.527 10.536 116.917 10.376 117.333 10.2586C117.759 10.1413 118.213 10.0826 118.693 10.0826C119.407 10.0826 120.021 10.2053 120.533 10.4506C121.045 10.696 121.439 11.048 121.717 11.5066C122.005 11.9546 122.149 12.4933 122.149 13.1226C122.149 13.5706 122.079 13.9973 121.941 14.4026C121.802 14.7973 121.605 15.1866 121.349 15.5706C121.093 15.9546 120.783 16.344 120.421 16.7386C120.058 17.1333 119.658 17.544 119.221 17.9706L116.837 20.3226V20.3866H122.613V21.6666Z" fill="#FDFDFD"/>
</svg>
