<svg width="24" height="24" viewBox="0 0 24 24" fill="none" xmlns="http://www.w3.org/2000/svg">
<g clip-path="url(#clip0_207_644)">
<path d="M21.8699 26.5C21.2299 25.39 17.7099 19.82 11.7299 20C6.19995 20.14 2.99995 25 2.12995 26.5C2.04218 26.652 1.99597 26.8245 1.99597 27C1.99597 27.1755 2.04218 27.348 2.12995 27.5C2.75995 28.59 6.12995 34 12.0199 34H12.2699C17.7999 33.86 21.0099 29 21.8699 27.5C21.9577 27.348 22.0039 27.1755 22.0039 27C22.0039 26.8245 21.9577 26.652 21.8699 26.5ZM12.2199 32C7.90995 32.1 5.09995 28.41 4.21995 27C5.21995 25.39 7.82995 22.1 11.8299 22C16.1199 21.89 18.9399 25.59 19.8299 27C18.7999 28.61 16.2199 31.9 12.2199 32Z" fill="#FDFDFD"/>
<path d="M12 23.5C11.3078 23.5 10.6311 23.7053 10.0555 24.0899C9.47993 24.4744 9.03133 25.0211 8.76642 25.6606C8.50152 26.3001 8.4322 27.0039 8.56725 27.6828C8.7023 28.3618 9.03564 28.9854 9.52513 29.4749C10.0146 29.9644 10.6383 30.2977 11.3172 30.4327C11.9961 30.5678 12.6999 30.4985 13.3394 30.2336C13.9789 29.9687 14.5256 29.5201 14.9101 28.9445C15.2947 28.3689 15.5 27.6922 15.5 27C15.5 26.0717 15.1313 25.1815 14.4749 24.5251C13.8185 23.8687 12.9283 23.5 12 23.5ZM12 28.5C11.7033 28.5 11.4133 28.412 11.1666 28.2472C10.92 28.0824 10.7277 27.8481 10.6142 27.574C10.5007 27.2999 10.4709 26.9983 10.5288 26.7074C10.5867 26.4164 10.7296 26.1491 10.9393 25.9393C11.1491 25.7296 11.4164 25.5867 11.7074 25.5288C11.9983 25.4709 12.2999 25.5006 12.574 25.6142C12.8481 25.7277 13.0824 25.92 13.2472 26.1666C13.412 26.4133 13.5 26.7033 13.5 27C13.5 27.3978 13.342 27.7794 13.0607 28.0607C12.7794 28.342 12.3978 28.5 12 28.5Z" fill="#FDFDFD"/>
<path d="M21.8699 11.5C21.2299 10.39 17.7099 4.81999 11.7299 4.99999C6.19995 5.13999 2.99995 9.99999 2.12995 11.5C2.04218 11.652 1.99597 11.8245 1.99597 12C1.99597 12.1755 2.04218 12.348 2.12995 12.5C2.75995 13.59 6.12995 19 12.0199 19H12.2699C17.7999 18.86 21.0099 14 21.8699 12.5C21.9577 12.348 22.0039 12.1755 22.0039 12C22.0039 11.8245 21.9577 11.652 21.8699 11.5ZM12.2199 17C7.90995 17.1 5.09995 13.41 4.21995 12C5.21995 10.39 7.82995 7.09999 11.8299 6.99999C16.1199 6.88999 18.9399 10.59 19.8299 12C18.7999 13.61 16.2199 16.9 12.2199 17Z" fill="#7C7C7C"/>
<path d="M12 8.5C11.3078 8.5 10.6311 8.70527 10.0555 9.08986C9.47993 9.47444 9.03133 10.0211 8.76642 10.6606C8.50152 11.3001 8.4322 12.0039 8.56725 12.6828C8.7023 13.3618 9.03564 13.9854 9.52513 14.4749C10.0146 14.9644 10.6383 15.2977 11.3172 15.4327C11.9961 15.5678 12.6999 15.4985 13.3394 15.2336C13.9789 14.9687 14.5256 14.5201 14.9101 13.9445C15.2947 13.3689 15.5 12.6922 15.5 12C15.5 11.0717 15.1313 10.1815 14.4749 9.52513C13.8185 8.86875 12.9283 8.5 12 8.5ZM12 13.5C11.7033 13.5 11.4133 13.412 11.1666 13.2472C10.92 13.0824 10.7277 12.8481 10.6142 12.574C10.5007 12.2999 10.4709 11.9983 10.5288 11.7074C10.5867 11.4164 10.7296 11.1491 10.9393 10.9393C11.1491 10.7296 11.4164 10.5867 11.7074 10.5288C11.9983 10.4709 12.2999 10.5006 12.574 10.6142C12.8481 10.7277 13.0824 10.92 13.2472 11.1666C13.412 11.4133 13.5 11.7033 13.5 12C13.5 12.3978 13.342 12.7794 13.0607 13.0607C12.7794 13.342 12.3978 13.5 12 13.5Z" fill="#7C7C7C"/>
</g>
<defs>
<clipPath id="clip0_207_644">
<rect width="24" height="24" fill="white"/>
</clipPath>
</defs>
</svg>
