<svg width="35" height="35" viewBox="0 0 35 35" fill="none" xmlns="http://www.w3.org/2000/svg">
<path d="M17.5 4.375C15.8958 4.375 14.5833 5.6875 14.5833 7.29167C14.5833 8.89583 15.8958 10.2083 17.5 10.2083C19.1041 10.2083 20.4166 8.89583 20.4166 7.29167C20.4166 5.6875 19.1041 4.375 17.5 4.375ZM17.5 24.7917C15.8958 24.7917 14.5833 26.1042 14.5833 27.7083C14.5833 29.3125 15.8958 30.625 17.5 30.625C19.1041 30.625 20.4166 29.3125 20.4166 27.7083C20.4166 26.1042 19.1041 24.7917 17.5 24.7917ZM17.5 14.5833C15.8958 14.5833 14.5833 15.8958 14.5833 17.5C14.5833 19.1042 15.8958 20.4167 17.5 20.4167C19.1041 20.4167 20.4166 19.1042 20.4166 17.5C20.4166 15.8958 19.1041 14.5833 17.5 14.5833Z" fill="#444444"/>
</svg>
